<?xml version="1.0" standalone="no"?>
<!DOCTYPE svg PUBLIC "-//W3C//DTD SVG 20010904//EN"
 "http://www.w3.org/TR/2001/REC-SVG-20010904/DTD/svg10.dtd">
<svg version="1.0" xmlns="http://www.w3.org/2000/svg"
 width="128.000000pt" height="128.000000pt" viewBox="0 0 128.000000 128.000000"
 preserveAspectRatio="xMidYMid meet">

<g transform="translate(0.000000,128.000000) scale(0.100000,-0.100000)"
fill="#000000" stroke="none">
<path d="M596 954 c-9 -8 -16 -30 -16 -47 l0 -32 -117 0 c-109 0 -121 -2 -152
-24 -84 -60 -95 -212 -19 -276 27 -23 30 -30 25 -65 -8 -63 13 -70 65 -22 41
37 47 40 121 44 l77 5 0 -42 c0 -22 5 -46 12 -53 7 -7 42 -12 86 -12 68 0 77
-2 109 -30 36 -32 74 -38 117 -19 22 10 28 7 61 -30 39 -43 59 -51 68 -27 4 9
-12 31 -38 55 -40 37 -43 44 -35 67 6 14 10 112 10 217 l0 191 -57 58 -57 58
-122 0 c-98 0 -126 -3 -138 -16z m244 -40 c0 -58 14 -74 65 -74 l45 0 0 -135
c0 -74 -3 -135 -6 -135 -3 0 -17 9 -31 20 -40 31 -87 26 -130 -14 -33 -30 -37
-40 -38 -80 l0 -46 -67 0 c-37 0 -70 5 -73 10 -12 20 -7 91 8 108 62 71 64
211 3 261 -16 14 -23 101 -9 114 3 4 57 7 120 7 l113 0 0 -36z m62 -11 c36
-35 35 -45 -4 -41 -29 3 -33 7 -36 36 -4 39 3 40 40 5z m-306 -95 c31 -35 34
-43 34 -100 0 -107 -41 -147 -150 -148 -58 0 -67 -3 -97 -32 l-33 -32 0 37 c0
26 -6 39 -21 47 -54 29 -77 136 -44 201 29 56 67 70 178 67 l99 -3 34 -37z
m320 -252 c37 -37 43 -70 20 -115 -14 -26 -53 -51 -81 -51 -28 0 -67 25 -81
51 -23 45 -17 78 20 115 45 45 77 45 122 0z"/>
<path d="M780 790 c-6 -25 -14 -48 -17 -52 -2 -5 0 -8 6 -8 12 0 34 76 28 93
-2 7 -10 -8 -17 -33z"/>
<path d="M707 802 c-21 -23 -21 -31 1 -48 25 -20 38 -17 19 4 -12 13 -14 21
-6 29 6 6 10 16 7 23 -2 7 -10 5 -21 -8z"/>
<path d="M833 793 c15 -16 15 -18 0 -35 -9 -10 -12 -18 -6 -18 5 0 18 9 28 20
15 16 15 22 5 35 -7 8 -20 15 -28 15 -15 0 -14 -2 1 -17z"/>
<path d="M748 683 c28 -2 76 -2 105 0 28 2 5 3 -53 3 -58 0 -81 -1 -52 -3z"/>
<path d="M743 643 c26 -2 68 -2 95 0 26 2 4 3 -48 3 -52 0 -74 -1 -47 -3z"/>
<path d="M713 593 c9 -2 23 -2 30 0 6 3 -1 5 -18 5 -16 0 -22 -2 -12 -5z"/>
<path d="M708 553 c7 -3 16 -2 19 1 4 3 -2 6 -13 5 -11 0 -14 -3 -6 -6z"/>
<path d="M354 715 c-3 -8 -3 -19 1 -25 10 -16 35 7 28 26 -7 18 -22 18 -29 -1z"/>
<path d="M433 714 c-8 -21 13 -42 28 -27 13 13 5 43 -11 43 -6 0 -13 -7 -17
-16z"/>
<path d="M524 715 c-3 -8 -3 -19 1 -25 10 -16 35 7 28 26 -7 18 -22 18 -29 -1z"/>
</g>
</svg>
